<?xml version="1.0" encoding="UTF-8"?>
<svg version="1.1" xmlns="http://www.w3.org/2000/svg" width="280" height="280">
<path d="M0 0 C0 0.66 0 1.32 0 2 C0.598125 2.26554687 1.19625 2.53109375 1.8125 2.8046875 C9.05653661 6.76303607 12.60127717 15.08357608 15.25 22.5 C18.48205562 37.62246206 14.9906772 51.1722938 6.875 64.125 C2.6860784 70.49120921 -2.25072192 76.0072394 -7.53662109 81.47167969 C-9.59083606 83.61705602 -11.58775417 85.81292179 -13.58984375 88.00683594 C-18.26492172 93.12503516 -23.05039301 98.0900642 -27.98828125 102.95703125 C-30.50857672 105.51647694 -32.83009863 108.21687587 -35.1640625 110.9453125 C-38.02525959 114.14741818 -41.10281722 117.12375777 -44.1796875 120.1171875 C-46.06383898 121.87753339 -46.06383898 121.87753339 -47 124 C-47.66 124 -48.32 124 -49 124 C-49.33 124.99 -49.66 125.98 -50 127 C-17.33 127.495 -17.33 127.495 16 128 C16 133.94 16 139.88 16 146 C-14.69 146 -45.38 146 -77 146 C-77 127 -77 127 -73.4375 122.3125 C-71.97139013 121.19105455 -70.49233963 120.08629669 -69 119 C-67.81845248 117.71955643 -66.67173128 116.40607592 -65.5625 115.0625 C-62.18402732 111.12224896 -58.53911224 107.50076343 -54.8203125 103.8828125 C-52.93616102 102.12246661 -52.93616102 102.12246661 -52 100 C-51.34 100 -50.68 100 -50 100 C-50 99.34 -50 98.68 -50 98 C-48.625 96.375 -48.625 96.375 -47 95 C-46.34 95 -45.68 95 -45 95 C-44.65582031 94.16275391 -44.65582031 94.16275391 -44.3046875 93.30859375 C-42.64624479 90.37404392 -40.55108478 88.39859647 -38.125 86.0625 C-35.49047455 83.51841348 -33.05792949 81.07431879 -30.8046875 78.18359375 C-30.20914063 77.46300781 -29.61359375 76.74242187 -29 76 C-28.34 76 -27.68 76 -27 76 C-26.77699219 75.46117187 -26.55398437 74.92234375 -26.32421875 74.3671875 C-24.91683556 71.85133436 -23.19605267 69.86700808 -21.26708984 67.73632812 C-12.74414819 58.29500303 -5.52000865 47.37321818 -5.79296875 34.171875 C-6.54863558 26.24450226 -9.97844494 20.16801425 -16 15 C-25.0427122 9.19521629 -34.94228596 9.4862849 -45.21484375 11.140625 C-55.95464592 13.57897018 -66.08192034 18.31646238 -76 23 C-76 15.74 -76 8.48 -76 1 C-69.33534707 -1.99909382 -62.82817789 -4.48712048 -55.75 -6.25 C-55.10160156 -6.41274414 -54.45320313 -6.57548828 -53.78515625 -6.74316406 C-35.17596461 -11.18785436 -16.60142642 -9.71560751 0 0 Z " fill="#0099ff" transform="translate(264,70)"/>
<path d="M0 0 C3.4375 1.8125 3.4375 1.8125 6 4 C6.5775 4.474375 7.155 4.94875 7.75 5.4375 C11.1333683 9.66671037 11.50038574 14.17522948 11.375 19.43359375 C10.64145128 24.45381778 8.20498835 28.10542263 4.390625 31.3828125 C0.03304435 34.24122549 -3.98910192 34.80884575 -9 34 C-15.05717629 32.08189417 -17.91943914 29.55491514 -21.0859375 24.14453125 C-23.18366384 19.22294253 -22.55674969 13.63931854 -20.875 8.6875 C-15.5302348 1.02666989 -9.09429064 -1.04825157 0 0 Z " fill="#0099ff" transform="translate(134,126)"/>
<path d="M0 0 C4.98669007 2.49334503 8.49675474 5.99350949 11 11 C11.52779267 17.2117137 11.74403643 22.758349 8 28 C4.07216248 31.93856932 0.89701103 33.8735326 -4.75 34.25 C-9.10649276 34.21772968 -12.13076659 32.93461671 -16 31 C-16 30.34 -16 29.68 -16 29 C-16.66 29 -17.32 29 -18 29 C-21.14946751 23.71339383 -23.19081362 19.20666491 -22 13 C-20.19384193 7.70708758 -17.78459095 4.06704548 -13 1 C-8.64950335 -0.45016555 -4.54665815 -0.51070107 0 0 Z " fill="#0099ff" transform="translate(78,126)"/>
<path d="M0 0 C4.98669007 2.49334503 8.49675474 5.99350949 11 11 C11.5072965 16.55531248 11.76260422 21.41830236 9.3125 26.5 C4.89925661 31.27107393 1.75913616 33.86649341 -4.875 34.1875 C-9.5073628 34.07780835 -12.4138883 33.57252616 -15.82421875 30.19140625 C-20.25919028 25.28864868 -22.38255056 22.06718152 -22.28125 15.19140625 C-21.6163771 10.0109382 -19.16627073 6.10937947 -15.4375 2.5625 C-10.55555756 -0.56695028 -5.63644699 -0.63311105 0 0 Z " fill="#0099ff" transform="translate(22,126)"/>
<path d="M0 0 C4.49011466 2.49839065 7.09405811 5.68486082 8.875 10.5 C9.82581943 16.42433643 9.37188712 21.48779513 5.875 26.5 C1.6624815 30.63388483 -1.4592691 32.65894961 -7.375 32.8125 C-12.46437369 32.75927779 -15.24881874 31.99801724 -19.125 28.5 C-23.38705815 23.77717881 -24.49360238 20.13992937 -24.40234375 13.9140625 C-23.75638292 8.29147387 -21.44299562 4.54901693 -17.0625 1.0625 C-11.28421622 -2.0110552 -6.0923789 -2.61431004 0 0 Z " fill="#0099ff" transform="translate(136.125,183.5)"/>
<path d="M0 0 C4.84070772 2.91156959 7.98230262 5.55628285 9.8046875 11.0234375 C10.55687957 17.67496449 10.32739368 22.93432468 6.2734375 28.4296875 C2.54731221 32.47292983 -1.26875248 33.24177545 -6.5703125 33.5859375 C-11.69650177 33.4322915 -14.75367635 32.15589037 -18.6015625 28.796875 C-21.96800125 25.05088678 -23.04272048 21.44762968 -23.5703125 16.5234375 C-22.81855233 9.50700928 -20.22165782 5.54065932 -14.9140625 1.1875 C-10.45808958 -1.83040893 -4.85088724 -2.15786799 0 0 Z " fill="#0099ff" transform="translate(23.1953125,182.9765625)"/>
<path d="M0 0 C4.77019054 2.71945442 8.23788131 5.77234434 9.83984375 11.12890625 C10.58690003 16.47502779 10.55094022 20.6803764 8.15234375 25.56640625 C4.85618714 29.21890412 1.53031542 32.86073832 -3.55078125 33.3671875 C-8.06047189 33.48424231 -11.36768147 33.48111726 -15.53515625 31.62890625 C-20.13610346 27.24705177 -23.41753077 23.0437658 -23.66015625 16.50390625 C-23.25857892 10.50084007 -21.1080304 6.78469989 -16.66015625 2.81640625 C-11.79315494 -1.25010142 -5.95814835 -2.40265295 0 0 Z " fill="#0099ff" transform="translate(79.16015625,182.87109375)"/>
<path d="M0 0 C4.06695086 3.59404959 6.25614539 6.67399451 7.10546875 11.9921875 C7.44872714 18.69036464 6.17988375 23.33808488 1.6875 28.375 C-2.05711204 31.42981508 -5.50713967 32.21482132 -10.3125 32.375 C-16.56171167 31.34982391 -20.31641763 29.03670433 -24.21875 24.09375 C-26.93870754 19.819531 -26.75689455 15.25495525 -26.3125 10.375 C-24.52060842 4.99932525 -20.98108549 1.45727042 -16.3125 -1.625 C-10.77993433 -3.55419124 -5.14594276 -2.52442475 0 0 Z " fill="#0099ff" transform="translate(82.3125,71.625)"/>
<path d="M0 0 C4.12778009 3.56490098 6.31513981 6.65204369 7.16796875 11.9921875 C7.51122714 18.69036464 6.24238375 23.33808488 1.75 28.375 C-1.99461204 31.42981508 -5.44463967 32.21482132 -10.25 32.375 C-16.18384491 31.2330917 -20.49291688 29.27059315 -24.25 24.375 C-26.5005714 19.44517693 -27.34201553 14.52118528 -25.52734375 9.29296875 C-22.98727549 3.75006676 -20.02945387 0.67207847 -14.4375 -1.9375 C-9.00422338 -3.10938319 -4.96386591 -2.48193296 0 0 Z " fill="#0099ff" transform="translate(26.25,71.625)"/>
<path d="M0 0 C4.17186097 3.54874148 7.31401247 6.48638813 8.04296875 12.09765625 C8.12725333 18.11557521 7.91868266 21.85673561 3.70703125 26.51171875 C-0.47250559 30.69125559 -3.33693481 32.40722693 -9.29296875 32.51171875 C-15.34599688 31.53891066 -19.20898864 28.92683239 -23.29296875 24.51171875 C-25.93583522 20.26015095 -25.94188903 15.37862082 -25.29296875 10.51171875 C-23.86728153 5.91063727 -22.04329195 3.12135635 -18.29296875 0.07421875 C-12.32659529 -3.03326743 -5.87019377 -3.81012577 0 0 Z " fill="#0099ff" transform="translate(137.29296875,71.48828125)"/>
<path d="M0 0 C0.99 0.33 1.98 0.66 3 1 C1.73427767 2.15147661 0.46222094 3.29599314 -0.8125 4.4375 C-1.52019531 5.07558594 -2.22789063 5.71367187 -2.95703125 6.37109375 C-5 8 -5 8 -8 9 C-6.40758592 4.70048197 -3.64459275 2.60328053 0 0 Z " fill="#424C60" transform="translate(10,183)"/>
<path d="M0 0 C0.99 0.33 1.98 0.66 3 1 C1.71064081 2.14842923 0.41843421 3.29366227 -0.875 4.4375 C-1.59429687 5.07558594 -2.31359375 5.71367187 -3.0546875 6.37109375 C-5 8 -5 8 -7 9 C-6.75881648 5.74402242 -5.47775788 4.2723696 -3.125 2.1875 C-2.09375 1.465625 -1.0625 0.74375 0 0 Z " fill="#444D60" transform="translate(121,127)"/>
<path d="M0 0 C-1.66751148 3.94139078 -4.22710649 6.7892812 -7 10 C-7.33 9.01 -7.66 8.02 -8 7 C-6.85546875 5.17578125 -6.85546875 5.17578125 -5.1875 3.3125 C-4.37345703 2.37857422 -4.37345703 2.37857422 -3.54296875 1.42578125 C-2 0 -2 0 0 0 Z " fill="#495468" transform="translate(65,72)"/>
<path d="M0 0 C0.99 0.33 1.98 0.66 3 1 C1.71064081 2.14842923 0.41843421 3.29366227 -0.875 4.4375 C-1.59429688 5.07558594 -2.31359375 5.71367187 -3.0546875 6.37109375 C-5 8 -5 8 -7 9 C-5.66087415 4.61740632 -3.87774964 2.45906075 0 0 Z " fill="#4C5668" transform="translate(9,127)"/>
<path d="" fill="#0099ff" transform="translate(0,0)"/>
<path d="" fill="#0099ff" transform="translate(0,0)"/>
<path d="" fill="#0099ff" transform="translate(0,0)"/>
<path d="" fill="#0099ff" transform="translate(0,0)"/>
</svg>
