<?xml version="1.0" encoding="UTF-8"?>
<svg version="1.1" xmlns="http://www.w3.org/2000/svg" width="512" height="512">
<path d="M0 0 C5.98621444 3.52598987 11.63414257 9.11744439 14.05859375 15.765625 C16.13464521 26.27448728 14.9781134 33.96842007 9.5 43 C7.06562955 46.03257372 4.37160074 48.717238 1.57421875 51.4140625 C0.82662796 52.15457855 0.07903717 52.8950946 -0.69120789 53.65805054 C-3.053376 55.99250074 -5.43241345 58.30883591 -7.8125 60.625 C-9.42888835 62.21627658 -11.04413431 63.80871446 -12.65820312 65.40234375 C-16.59237133 69.28174293 -20.54049813 73.14646996 -24.5 77 C-23.10240095 80.54518884 -23.10240095 80.54518884 -21.5 84 C-20.7470283 89.66158471 -20.57619135 94.52123028 -24.0625 99.25 C-25.1723665 100.53204149 -26.32029779 101.78191268 -27.5 103 C-28.14582031 103.67546875 -28.79164063 104.3509375 -29.45703125 105.046875 C-31.11024502 106.73039207 -32.78672565 108.37796511 -34.5 110 C-33.13643172 113.08043619 -31.61310996 115.09010557 -29.1640625 117.390625 C-28.51179688 118.01839844 -27.85953125 118.64617187 -27.1875 119.29296875 C-25.824406 120.58635908 -24.45727649 121.8755111 -23.0859375 123.16015625 C-16.6703842 129.36101584 -12.50668726 136.0197633 -12.1875 145.125 C-12.30073849 152.77488894 -15.33025659 159.37557818 -20.37744141 165.08203125 C-25.10189395 169.35110178 -30.86457185 172.30223181 -36.375 175.4375 C-37.64913286 176.17523265 -38.92257716 176.91415584 -40.1953125 177.65429688 C-43.28905533 179.44999617 -46.39181094 181.22939568 -49.5 183 C-49.29842285 183.71019287 -49.0968457 184.42038574 -48.88916016 185.15209961 C-47.96516045 188.41316579 -47.04505554 191.67531894 -46.125 194.9375 C-45.80789063 196.05447266 -45.49078125 197.17144531 -45.1640625 198.32226562 C-40.27314896 215.6951981 -40.27314896 215.6951981 -40 221.75 C-39.92265625 222.79414063 -39.92265625 222.79414063 -39.84375 223.859375 C-41.56235363 229.46529635 -49.0173046 232.64026047 -53.875 235.3125 C-54.51566406 235.67150391 -55.15632813 236.03050781 -55.81640625 236.40039062 C-57.3745163 237.27246714 -58.93682222 238.13704021 -60.5 239 C-62.92430503 255.73649188 -62.92430503 255.73649188 -58.87988281 271.35400391 C-54.90876443 274.74611854 -50.3691672 276.70326714 -45.40112305 278.2175293 C-43.13921607 279.14849268 -41.98832704 280.05994613 -40.5 282 C-39.83367496 289.32233277 -41.38115157 295.75994783 -43.25 302.8125 C-43.52513428 303.87114258 -43.80026855 304.92978516 -44.08374023 306.02050781 C-44.8724743 309.01848206 -45.68103275 312.01016152 -46.5 315 C-46.69674316 315.72944824 -46.89348633 316.45889648 -47.09619141 317.21044922 C-49.43613982 325.71513424 -49.43613982 325.71513424 -52.41796875 329.31640625 C-56.42030507 331.50272685 -59.19233212 331.09833821 -63.66259766 330.84204102 C-72.54779759 330.16068697 -72.54779759 330.16068697 -80.37011719 333.56933594 C-83.33965946 337.59137421 -85.00537857 342.06432084 -86.61425781 346.76220703 C-88.0825037 350.47167281 -90.26614088 353.71073473 -92.5 357 C-92.19707031 357.47308594 -91.89414062 357.94617188 -91.58203125 358.43359375 C-90.20252234 360.6110955 -88.85137122 362.80493485 -87.5 365 C-87.02304687 365.74378906 -86.54609375 366.48757813 -86.0546875 367.25390625 C-82.88583178 372.45988351 -81.61896658 375.89614977 -82.5 382 C-84.01171875 384.73046875 -84.01171875 384.73046875 -86.1875 387.1875 C-87.00605469 388.11433594 -87.82460938 389.04117187 -88.66796875 389.99609375 C-89.60773202 391.00138302 -90.55197589 392.00249721 -91.5 393 C-92.01385254 393.54414551 -92.52770508 394.08829102 -93.05712891 394.64892578 C-110.12550217 412.56170725 -110.12550217 412.56170725 -117.19921875 413.48046875 C-122.42792104 413.29752799 -126.19656657 410.75956736 -130.5 408 C-131.27472656 407.52304687 -132.04945313 407.04609375 -132.84765625 406.5546875 C-134.74218661 405.38522431 -136.62508238 404.20056033 -138.5 403 C-139.21542969 403.42410156 -139.93085938 403.84820312 -140.66796875 404.28515625 C-141.66441406 404.87167969 -142.66085937 405.45820313 -143.6875 406.0625 C-144.7703125 406.72378906 -145.853125 407.38507813 -146.96875 408.06640625 C-149.41102657 409.49083942 -151.40706159 410.30138478 -154.15625 411.21484375 C-158.25726215 412.70735813 -160.56947011 413.72470189 -163.5 417 C-164.90616316 422.83868403 -164.56308653 428.77037721 -164.34765625 434.7265625 C-164.31253659 438.23519831 -164.40544241 439.80404017 -165.95703125 443.01953125 C-169.4504207 445.74018939 -172.89867694 446.85958752 -177.125 448.0625 C-178.37567261 448.43592529 -178.37567261 448.43592529 -179.65161133 448.81689453 C-185.45332678 450.51040364 -191.29861053 452.01683835 -197.1875 453.375 C-197.90437988 453.54265869 -198.62125977 453.71031738 -199.35986328 453.88305664 C-204.18482195 454.92889659 -208.57590063 455.6186819 -213.5 455 C-215.72583951 452.93019216 -216.96129842 451.50847149 -218.5 449 C-218.87334473 448.40348633 -219.24668945 447.80697266 -219.63134766 447.19238281 C-220.73464886 445.35760313 -221.78063245 443.50076682 -222.8125 441.625 C-223.17150391 440.98433594 -223.53050781 440.34367187 -223.90039062 439.68359375 C-224.77246714 438.1254837 -225.63704021 436.56317778 -226.5 435 C-243.23649188 432.57569497 -243.23649188 432.57569497 -258.85400391 436.62011719 C-262.24611854 440.59123557 -264.20326714 445.1308328 -265.7175293 450.09887695 C-266.64356341 452.34880757 -267.58221219 453.50755813 -269.5 455 C-275.94847942 455.59271738 -281.80472295 454.29854449 -288.0625 452.8125 C-289.50471924 452.47412109 -289.50471924 452.47412109 -290.97607422 452.12890625 C-311.90256257 447.10068279 -311.90256257 447.10068279 -316.91015625 443.05078125 C-318.97675257 439.08515047 -318.64779013 436.1833464 -318.44433594 431.78491211 C-317.81581225 423.0016613 -317.81581225 423.0016613 -320.92138672 415.11523438 C-324.96007211 411.79456193 -329.41052017 410.01683122 -334.5 409 C-339.52090925 410.02188377 -344.02112567 413.81689373 -348.25 416.625 C-350.04627538 417.80560032 -351.8431801 418.98524351 -353.640625 420.1640625 C-354.59130859 420.78829102 -355.54199219 421.41251953 -356.52148438 422.05566406 C-361.65693208 425.40801697 -366.82985273 428.70152158 -372 432 C-379.82530363 437.00111586 -387.64415195 442.01169657 -395.4375 447.0625 C-396.2109375 447.56201172 -396.984375 448.06152344 -397.78125 448.57617188 C-400.0302026 450.03701326 -402.2651915 451.51763515 -404.5 453 C-405.28729492 453.504104 -406.07458984 454.00820801 -406.88574219 454.52758789 C-414.08431599 459.29746138 -419.91807072 465.1325139 -425.875 471.3125 C-427.33224233 472.81780186 -428.79179861 474.32057628 -430.25772095 475.81742859 C-431.57261636 477.1608171 -432.87910513 478.51241904 -434.18505859 479.86450195 C-438.01132102 483.39417053 -440.71021216 484.27893439 -445.875 484.25 C-446.79023438 484.25515625 -447.70546875 484.2603125 -448.6484375 484.265625 C-451.83374707 483.96891123 -454.48812211 483.04964909 -457.5 482 C-458.70160767 483.27230469 -458.70160767 483.27230469 -459.92749023 484.5703125 C-462.91781703 487.72406634 -465.93826992 490.8475038 -468.96850586 493.96289062 C-470.27341071 495.31293726 -471.57011006 496.67096712 -472.8581543 498.03710938 C-474.71621217 500.0048866 -476.60233834 501.94162916 -478.49609375 503.875 C-479.062108 504.48746582 -479.62812225 505.09993164 -480.21128845 505.73095703 C-483.42859423 508.95216896 -485.61854718 510.39996199 -490.25024414 510.5703125 C-492.86920273 510.49762377 -494.1086779 510.28728479 -496.22996521 508.72996521 C-498.25156833 505.9762587 -498.10388432 503.66303551 -497.98144531 500.33401489 C-497.1141649 496.12949707 -494.44117831 493.82972228 -491.375 490.99609375 C-490.75351074 490.38733902 -490.13202148 489.77858429 -489.49169922 489.15138245 C-487.51467967 487.22448019 -485.5086648 485.33133581 -483.5 483.4375 C-482.14899631 482.13167009 -480.80001311 480.82374635 -479.453125 479.51367188 C-476.15831134 476.31773674 -472.83713044 473.15169909 -469.5 470 C-469.82307129 469.06736328 -470.14614258 468.13472656 -470.47900391 467.17382812 C-471.46589413 464.10602017 -471.82894929 461.70512949 -471.875 458.5 C-471.90335937 457.6028125 -471.93171875 456.705625 -471.9609375 455.78125 C-471.01207541 450.05591263 -466.8253148 446.10197723 -462.71875 442.26953125 C-461.8002124 441.39409668 -460.8816748 440.51866211 -459.93530273 439.61669922 C-459.2158699 438.93169342 -459.2158699 438.93169342 -458.48190308 438.23284912 C-448.96663506 429.11281773 -441.40430924 419.84081876 -434.86865234 408.34765625 C-432.48390068 404.25707972 -429.85542847 400.32718255 -427.25 396.375 C-422.99390999 389.86239864 -418.78144279 383.3236125 -414.60327148 376.76074219 C-412.55542041 373.55140506 -410.49304172 370.35172948 -408.4296875 367.15234375 C-405.99362075 363.36780301 -403.62284925 359.55841233 -401.3203125 355.69140625 C-391.22275333 339.14566458 -377.45453593 326.26752946 -363.5 313 C-363.72139648 312.43829102 -363.94279297 311.87658203 -364.17089844 311.29785156 C-378.63443388 274.19835638 -380.85753193 236.78213664 -365.15234375 199.6171875 C-350.28357827 167.06759686 -324.384951 142.04478341 -291.20703125 128.37890625 C-256.69130981 115.54007625 -221.32843324 116.61149119 -187.26733398 130.30737305 C-185.6972998 130.92267723 -184.09976434 131.46674522 -182.5 132 C-175.9 125.4 -169.3 118.8 -162.5 112 C-165.49325219 109.00674781 -167.71887252 107.77935411 -171.5 106 C-178.38638198 102.75934966 -178.38638198 102.75934966 -180.5 100 C-180.84057617 97.45629883 -180.84057617 97.45629883 -180.79296875 94.45703125 C-180.78330078 93.38388672 -180.77363281 92.31074219 -180.76367188 91.20507812 C-180.73853516 90.08552734 -180.71339844 88.96597656 -180.6875 87.8125 C-180.67396484 86.68134766 -180.66042969 85.55019531 -180.64648438 84.38476562 C-180.61109958 81.58936683 -180.56172948 78.79492108 -180.5 76 C-181.07717773 75.87520264 -181.65435547 75.75040527 -182.24902344 75.62182617 C-187.78633422 74.41046785 -193.24305405 73.01218994 -198.703125 71.48828125 C-202.71302836 70.77313574 -202.71302836 70.77313574 -206.5 72 C-208.37328715 74.64176507 -209.6987238 77.50764223 -211.0625 80.4375 C-211.80286947 82.00391208 -212.5538037 83.56538455 -213.31640625 85.12109375 C-213.64068604 85.8164624 -213.96496582 86.51183105 -214.29907227 87.22827148 C-215.79678953 89.43785355 -217.01029752 90.08289284 -219.5 91 C-224.91979146 91.43014218 -228.04710878 91.40515211 -232.5 88 C-234.5 86 -234.5 86 -234.875 82.625 C-234.5 79 -234.5 79 -232.75 76.5625 C-230.5 75 -230.5 75 -226.5 75 C-226.12681641 73.98292969 -226.12681641 73.98292969 -225.74609375 72.9453125 C-224.26292904 69.43965046 -222.45337269 66.17101662 -220.5625 62.875 C-220.21509766 62.25496094 -219.86769531 61.63492188 -219.50976562 60.99609375 C-216.20222679 55.20322912 -216.20222679 55.20322912 -213.5 53 C-206.17766723 52.33367496 -199.74005217 53.88115157 -192.6875 55.75 C-191.62885742 56.02513428 -190.57021484 56.30026855 -189.47949219 56.58374023 C-186.48151794 57.3724743 -183.48983848 58.18103275 -180.5 59 C-179.77055176 59.19674316 -179.04110352 59.39348633 -178.28955078 59.59619141 C-169.77970981 61.93755841 -169.77970981 61.93755841 -166.19921875 64.91015625 C-164.00129357 68.9068432 -164.29473057 71.78214998 -164.45385742 76.26586914 C-165.05086763 84.90731784 -165.05086763 84.90731784 -162.25878906 92.78662109 C-158.83125815 95.74637218 -154.96564868 97.26390406 -150.5 98 C-146.34672644 96.61520635 -143.59426245 93.34679867 -140.6015625 90.296875 C-139.73250275 89.42343445 -139.73250275 89.42343445 -138.84588623 88.53234863 C-137.5908885 87.2697509 -136.33820636 86.00484822 -135.08758545 84.73791504 C-133.10819086 82.73297392 -131.12259801 80.73436435 -129.13525391 78.73730469 C-124.91788908 74.49709021 -120.70839551 70.24911419 -116.5 66 C-111.62317584 61.07598972 -106.74318667 56.15520776 -101.85467529 51.24279785 C-99.89849986 49.27365564 -97.94844539 47.29858576 -95.99853516 45.32324219 C-94.79879955 44.11624123 -93.59878209 42.90952034 -92.3984375 41.703125 C-91.85805847 41.15241333 -91.31767944 40.60170166 -90.76092529 40.03430176 C-86.27784626 35.54997001 -83.40403869 33.71388643 -77.0625 33.6875 C-72.58110526 33.74113371 -70.25213714 34.49857524 -66.5 37 C-63.41836249 35.85327243 -61.42106508 34.149016 -59.15942383 31.80712891 C-58.21242363 30.83569443 -58.21242363 30.83569443 -57.24629211 29.84463501 C-56.57333603 29.14567108 -55.90037994 28.44670715 -55.20703125 27.7265625 C-53.75760651 26.24695973 -52.30772195 24.76780728 -50.85742188 23.2890625 C-48.58556968 20.96159611 -46.31781931 18.6305077 -44.05834961 16.29101562 C-41.86929232 14.02893389 -39.66444978 11.78321109 -37.45703125 9.5390625 C-36.46277885 8.4966893 -36.46277885 8.4966893 -35.44844055 7.43325806 C-25.95189169 -2.1635703 -12.81831604 -5.77313471 0 0 Z M-20.8984375 16.62890625 C-21.92880127 17.58144287 -21.92880127 17.58144287 -22.97998047 18.55322266 C-28.71438834 24.12096493 -34.36729339 29.76709977 -40 35.4375 C-41.31226585 36.75479059 -42.62476395 38.07184986 -43.9375 39.38867188 C-47.12768506 42.5897861 -50.31470651 45.79401865 -53.5 49 C-52.17879172 51.93230193 -50.75361803 53.98664899 -48.4609375 56.234375 C-47.59082031 57.09482422 -47.59082031 57.09482422 -46.703125 57.97265625 C-46.09984375 58.55917969 -45.4965625 59.14570312 -44.875 59.75 C-44.26398438 60.35199219 -43.65296875 60.95398437 -43.0234375 61.57421875 C-41.52011376 63.05405305 -40.01065144 64.52764676 -38.5 66 C-35.51615844 64.65870284 -33.43017117 63.17899494 -31.12426758 60.8671875 C-30.48713333 60.23312988 -29.84999908 59.59907227 -29.19355774 58.94580078 C-28.17928963 57.92075439 -28.17928963 57.92075439 -27.14453125 56.875 C-26.44228928 56.1722998 -25.7400473 55.46959961 -25.01652527 54.74560547 C-23.53574243 53.26180552 -22.05738682 51.77557985 -20.58129883 50.28710938 C-18.3157949 48.00332149 -16.04236337 45.72766451 -13.76757812 43.453125 C-12.33025577 42.0108883 -10.89339091 40.56819548 -9.45703125 39.125 C-8.77477982 38.44163574 -8.09252838 37.75827148 -7.38960266 37.05419922 C-6.7619249 36.4201416 -6.13424713 35.78608398 -5.48754883 35.1328125 C-4.9333577 34.57480957 -4.37916656 34.01680664 -3.80818176 33.44189453 C-1.00234344 30.34926395 -1.11476304 27.33672851 -1.140625 23.328125 C-1.74544278 19.40995764 -3.66876757 17.69641184 -6.5 15 C-11.41210015 12.54394993 -16.84731657 12.88059044 -20.8984375 16.62890625 Z M-79.56640625 51.96875 C-80.39011719 52.8040625 -81.21382813 53.639375 -82.0625 54.5 C-82.88878906 55.3353125 -83.71507812 56.170625 -84.56640625 57.03125 C-85.52353516 58.00578125 -85.52353516 58.00578125 -86.5 59 C-85.09490901 62.18259851 -83.43078658 64.31348466 -80.96826172 66.75878906 C-80.24766571 67.47923401 -79.5270697 68.19967896 -78.78463745 68.94195557 C-78.00750397 69.70876648 -77.23037048 70.47557739 -76.4296875 71.265625 C-75.63345978 72.05902283 -74.83723206 72.85242065 -74.01687622 73.66986084 C-71.47424052 76.20130703 -68.92473652 78.72570803 -66.375 81.25 C-64.64928247 82.96568617 -62.92401645 84.68182662 -61.19921875 86.3984375 C-56.97136968 90.60424248 -52.73786131 94.80428507 -48.5 99 C-45.31913482 97.49053489 -43.20130094 95.92058175 -40.75 93.375 C-40.13640625 92.74335937 -39.5228125 92.11171875 -38.890625 91.4609375 C-38.43171875 90.97882813 -37.9728125 90.49671875 -37.5 90 C-41.86562185 84.78066785 -46.45238532 79.90062363 -51.26953125 75.09765625 C-51.99113937 74.3750914 -52.7127475 73.65252655 -53.45622253 72.9080658 C-54.96852918 71.39508309 -56.48208158 69.88334464 -57.99682617 68.37280273 C-60.32652987 66.04850267 -62.65078851 63.718852 -64.97460938 61.38867188 C-66.44759571 59.9163455 -67.92089177 58.4443289 -69.39453125 56.97265625 C-70.09238235 56.27278091 -70.79023346 55.57290558 -71.50923157 54.8518219 C-72.1504747 54.21373093 -72.79171783 53.57563995 -73.45239258 52.91821289 C-74.01831619 52.35308487 -74.58423981 51.78795685 -75.16731262 51.20570374 C-77.36441898 49.21794622 -77.29219715 49.8020177 -79.56640625 51.96875 Z M-100.89976895 73.1605773 C-101.44450796 73.71041234 -101.98924698 74.26024737 -102.55049324 74.82674408 C-103.18003635 75.45723868 -103.80957945 76.08773328 -104.45819962 76.73733377 C-105.49766812 77.79372624 -105.49766812 77.79372624 -106.55813599 78.87145996 C-107.29332329 79.61058294 -108.02851059 80.34970592 -108.78597629 81.11122656 C-111.26714497 83.60792725 -113.74112668 86.11163433 -116.21533203 88.61523438 C-117.98539114 90.39894366 -119.75594618 92.18216094 -121.52696228 93.96492004 C-125.34961134 97.81429482 -129.16947053 101.66640698 -132.98740005 105.52046204 C-139.02189197 111.61127476 -145.06785491 117.69062968 -151.11593628 123.76794434 C-153.1839402 125.84619797 -155.2518949 127.92450058 -157.31985283 130.00279999 C-158.09514398 130.78194924 -158.09514398 130.78194924 -158.88609759 131.57683888 C-164.77328944 137.49351461 -170.65874021 143.41192023 -176.54296875 149.33154297 C-177.08104054 149.87284424 -177.61911232 150.41414552 -178.17348932 150.97184986 C-186.89021748 159.74163382 -195.59564349 168.52256594 -204.2978275 177.30677885 C-213.22842958 186.32084427 -222.17429296 195.31956718 -231.13366783 204.30503511 C-236.6614189 209.84998665 -242.17639265 215.40706069 -247.67565005 220.9802748 C-251.89163417 225.25054121 -256.12827782 229.49967951 -260.37306404 233.74133873 C-262.11188226 235.48556109 -263.84381222 237.23668116 -265.56832314 238.99505043 C-267.92082407 241.39172409 -270.29663562 243.7625768 -272.67996216 246.12854004 C-273.35955683 246.83280168 -274.0391515 247.53706332 -274.73933995 248.26266623 C-278.00541068 251.45434816 -280.17093177 253.40883109 -284.86375237 253.4958725 C-288.5 253 -288.5 253 -290.5 251.9375 C-292.2025482 248.63881286 -292.10203783 246.67243079 -291.5 243 C-290.22287655 241.19683838 -290.22287655 241.19683838 -288.52122498 239.32910156 C-287.88333479 238.62861694 -287.2454446 237.92813232 -286.58822441 237.2064209 C-282.96705488 233.38028799 -279.26864634 229.63848993 -275.53540039 225.921875 C-274.66631042 225.05263901 -273.79722046 224.18340302 -272.90179443 223.28782654 C-270.54251436 220.92911947 -268.1810537 218.57263797 -265.81855321 216.21715927 C-263.34104735 213.74594899 -260.8664156 211.27186387 -258.39146423 208.7980957 C-253.71525591 204.12498253 -249.03650674 199.45442204 -244.35681576 194.78479671 C-239.02465381 189.4638526 -233.69536649 184.14003326 -228.36630642 178.81598282 C-217.41404319 167.87414281 -206.45821549 156.93587904 -195.5 146 C-198.60696108 142.54100403 -202.13014331 141.64448047 -206.5 140.4375 C-207.26965088 140.22061523 -208.03930176 140.00373047 -208.83227539 139.78027344 C-239.22797139 131.37722628 -271.1701904 134.43148574 -298.80419922 150.02832031 C-299.36381348 150.34897461 -299.92342773 150.66962891 -300.5 151 C-301.48097656 151.55429688 -302.46195312 152.10859375 -303.47265625 152.6796875 C-331.20384962 169.35830452 -349.23424372 196.10876181 -357.5 227 C-363.10291372 251.03435665 -361.46048437 277.68758538 -350.5 300 C-345.38015439 295.73552113 -340.68438042 291.24379605 -336.0625 286.44921875 C-334.65961241 285.01423228 -333.25594327 283.58000954 -331.8515625 282.14648438 C-329.66525548 279.9106677 -327.48394131 277.67081497 -325.31542969 275.41772461 C-323.20324554 273.22677379 -321.07239004 271.05552063 -318.9375 268.88671875 C-317.97469116 267.87275276 -317.97469116 267.87275276 -316.99243164 266.83830261 C-313.00790119 262.83002223 -310.40711314 261.07827287 -304.5 261 C-302.0625 261.4375 -302.0625 261.4375 -300.5 262 C-299.65220953 265.07769314 -299.26688203 267.8075376 -299.5 271 C-300.78098392 272.99012756 -300.78098392 272.99012756 -302.56202698 274.87133789 C-303.20512377 275.56011017 -303.84822056 276.24888245 -304.51080513 276.95852661 C-305.16723944 277.63221283 -305.82367374 278.30589905 -306.5 279 C-307.06638624 279.59029999 -307.63277248 280.18059998 -308.21632195 280.78878784 C-309.94177898 282.56364889 -311.68950376 284.31352541 -313.44506836 286.05859375 C-314.09957977 286.71325119 -314.75409119 287.36790863 -315.42843628 288.04240417 C-317.56320689 290.17648567 -319.70148275 292.30701665 -321.83984375 294.4375 C-323.33221478 295.92800328 -324.8243632 297.41872948 -326.31629944 298.90966797 C-330.22175413 302.81132554 -334.13020379 306.7099692 -338.03930664 310.60797119 C-342.03649798 314.59488776 -346.03081939 318.58467736 -350.02539062 322.57421875 C-357.84747042 330.38561077 -365.67272048 338.19381853 -373.5 346 C-370.36066462 349.70969836 -367.2350281 353.39185186 -363.78955078 356.82397461 C-363.12931915 357.48413071 -362.46908752 358.1442868 -361.78884888 358.82444763 C-360.75254837 359.85300621 -360.75254837 359.85300621 -359.6953125 360.90234375 C-358.9713327 361.6249086 -358.24735291 362.34747345 -357.50143433 363.0919342 C-355.21164735 365.37616922 -352.91839007 367.65688312 -350.625 369.9375 C-349.06226839 371.49521039 -347.4997661 373.05315087 -345.9375 374.61132812 C-342.12764661 378.41021631 -338.31474099 382.2060206 -334.5 386 C-328.12170134 380.73897592 -322.3154739 374.95283362 -316.48390198 369.10415649 C-315.37262729 367.99331834 -314.26113268 366.88270016 -313.14943832 365.772282 C-310.10738465 362.73245705 -307.06844559 359.6895352 -304.0300194 356.64608502 C-300.74835405 353.36009202 -297.46378974 350.07699892 -294.17958069 346.79354858 C-288.4938785 341.10837016 -282.81000678 335.42136701 -277.12738228 329.73311234 C-268.91130748 321.50890261 -260.69246527 313.28746306 -252.47294997 305.06669204 C-239.13666602 291.7282207 -225.8026157 278.38751879 -212.4699707 265.04541016 C-199.52029757 252.0865548 -186.56957218 239.12875254 -173.61743164 226.17236328 C-172.81875589 225.37342481 -172.02008014 224.57448633 -171.19720209 223.7513376 C-167.19038265 219.7432131 -163.18354253 215.73510928 -159.17669213 211.72701573 C-125.94792118 178.48788194 -92.72277538 145.24512633 -59.5 112 C-60.99802088 108.86464214 -62.53735688 106.71008321 -65 104.24121094 C-65.71414063 103.52076599 -66.42828125 102.80032104 -67.1640625 102.05804443 C-68.32035156 100.90782806 -68.32035156 100.90782806 -69.5 99.734375 C-70.29148437 98.94097717 -71.08296875 98.14757935 -71.8984375 97.33013916 C-73.57045737 95.65675946 -75.24500097 93.98589819 -76.921875 92.31738281 C-79.49712398 89.75286403 -82.06151052 87.17783011 -84.625 84.6015625 C-86.24935884 82.97852473 -87.87433769 81.35610719 -89.5 79.734375 C-90.65628906 78.57201324 -90.65628906 78.57201324 -91.8359375 77.38616943 C-92.55007813 76.67833313 -93.26421875 75.97049683 -94 75.24121094 C-94.6290625 74.61373962 -95.258125 73.98626831 -95.90625 73.33978271 C-97.95649567 71.61624784 -98.80547971 71.42415891 -100.89976895 73.1605773 Z M-50.18313599 124.44262695 C-51.18907303 125.45522583 -51.18907303 125.45522583 -52.21533203 126.48828125 C-52.97596954 127.24906982 -53.73660706 128.0098584 -54.52029419 128.79370117 C-55.75161575 130.04050659 -55.75161575 130.04050659 -57.0078125 131.3125 C-57.84843231 132.15594971 -58.68905212 132.99939941 -59.55514526 133.8684082 C-62.24980598 136.57430071 -64.93744576 139.28705079 -67.625 142 C-69.44615773 143.83118364 -71.26776644 145.66191887 -73.08984375 147.4921875 C-77.56514987 151.98959376 -82.03470456 156.49265559 -86.5 161 C-85.02587462 164.77431725 -83.34054249 168.26597768 -81.375 171.8125 C-80.83617187 172.78832031 -80.29734375 173.76414063 -79.7421875 174.76953125 C-79.12730469 175.87361328 -79.12730469 175.87361328 -78.5 177 C-71.22756374 177.70006465 -67.58905667 175.77281031 -61.6875 171.6875 C-60.02711357 170.5836603 -58.36427542 169.48350107 -56.69921875 168.38671875 C-55.42377197 167.54246338 -55.42377197 167.54246338 -54.12255859 166.68115234 C-49.07012983 163.44236772 -43.81208666 160.54716722 -38.55541992 157.6550293 C-33.21115498 154.72457155 -33.21115498 154.72457155 -29.5 150 C-28.37521266 145.95076559 -27.9656638 143.95292198 -30.05078125 140.234375 C-32.83437261 136.31763484 -36.21518618 132.99263056 -39.625 129.625 C-40.25792969 128.98433594 -40.89085937 128.34367188 -41.54296875 127.68359375 C-42.15011719 127.07902344 -42.75726563 126.47445312 -43.3828125 125.8515625 C-43.93340332 125.30322754 -44.48399414 124.75489258 -45.05126953 124.18994141 C-47.24728643 122.38620255 -48.05985746 122.62275093 -50.18313599 124.44262695 Z M-101.54125977 175.92773438 C-102.41580811 176.80751953 -103.29035645 177.68730469 -104.19140625 178.59375 C-104.65610825 179.05986694 -105.12081024 179.52598389 -105.59959412 180.00622559 C-107.08958182 181.50183009 -108.57606335 183.00086695 -110.0625 184.5 C-111.06943315 185.51194598 -112.07659166 186.52366777 -113.08398438 187.53515625 C-115.55905229 190.02042642 -118.02935506 192.51030124 -120.5 195 C-118.52 199.95 -116.54 204.9 -114.5 210 C-113.52933594 209.16210938 -112.55867188 208.32421875 -111.55859375 207.4609375 C-107.27519333 203.78945142 -102.92285602 200.2044525 -98.5625 196.625 C-97.78326172 195.98433594 -97.00402344 195.34367187 -96.20117188 194.68359375 C-94.3013131 193.12174666 -92.40091437 191.56056201 -90.5 190 C-91.11704263 188.40727877 -91.73911984 186.81650748 -92.36328125 185.2265625 C-92.70915283 184.34049316 -93.05502441 183.45442383 -93.41137695 182.54150391 C-94.78316583 179.33891986 -96.3896844 176.76524113 -98.5 174 C-99.84676927 173.88556657 -99.84676927 173.88556657 -101.54125977 175.92773438 Z M-99.1953125 217.85546875 C-100.72890105 219.28248589 -102.30850223 220.66161999 -103.9296875 221.98828125 C-104.67476562 222.63152344 -105.41984375 223.27476562 -106.1875 223.9375 C-106.85136719 224.48277344 -107.51523437 225.02804688 -108.19921875 225.58984375 C-110.00651492 228.93849762 -109.36821267 231.26293283 -108.86108398 234.96459961 C-105.74991842 261.11816383 -108.39579205 290.69496763 -121.5 314 C-124.70004854 315.60002427 -128.02718154 315.48902954 -131.5 315 C-133.5625 313.5 -133.5625 313.5 -134.5 311 C-134.10442022 305.44443104 -132.99646572 301.30229749 -130.6875 296.1875 C-124.33775584 281.127455 -122.84647104 266.21114888 -123.5 250 C-126.61981662 253.11981662 -127.62064257 257.17358815 -129.18359375 261.25 C-130.5 264 -130.5 264 -133.5 266 C-139.51987353 266.53748871 -139.51987353 266.53748871 -142.4375 264.9375 C-144.10017732 261.90555901 -143.72208322 259.42146964 -143.5 256 C-142.62421969 253.33886689 -141.72362066 250.9621385 -140.5625 248.4375 C-140.25618652 247.75220215 -139.94987305 247.0669043 -139.63427734 246.36083984 C-136.74315349 240.11135431 -133.17229159 234.39009324 -129.3203125 228.6953125 C-127.53384111 226.17600064 -127.53384111 226.17600064 -126.5 224 C-127.24192978 221.4105196 -128.04172517 218.91030005 -128.9375 216.375 C-129.18048828 215.66859375 -129.42347656 214.9621875 -129.67382812 214.234375 C-130.27587205 212.48726713 -130.88708017 210.74332214 -131.5 209 C-135.30711006 209 -136.2814219 210.42310877 -138.89173049 213.00448656 C-139.47830705 213.59980165 -140.06488362 214.19511674 -140.66923523 214.80847168 C-141.29658202 215.43325519 -141.9239288 216.0580387 -142.5702861 216.70175505 C-144.68256212 218.80906727 -146.78389853 220.92696579 -148.88549805 223.04492188 C-150.3926664 224.55293593 -151.90049465 226.06029071 -153.40893555 227.56703186 C-157.51248028 231.66971302 -161.60668578 235.78160286 -165.69933295 239.89515114 C-169.97412775 244.18865254 -174.25737428 248.47370495 -178.53974915 252.75964355 C-186.6523843 260.88161689 -194.75733948 269.01120985 -202.85959417 277.14353704 C-212.08212411 286.39955586 -221.31313626 295.64709528 -230.54488695 304.89391613 C-249.53940859 323.91982696 -268.52320056 342.95641384 -287.5 362 C-284.39300484 365.45903391 -280.86984997 366.35539053 -276.5 367.5625 C-275.34661133 367.88782715 -275.34661133 367.88782715 -274.16992188 368.21972656 C-243.13857316 376.80480582 -210.59072138 373.0063394 -182.4140625 357.27734375 C-171.66437936 350.66794473 -160.24526267 342.1867636 -152.3359375 332.29296875 C-150.5 330 -150.5 330 -148.5 329 C-145.30799279 328.72243416 -143.0929092 328.75035402 -140.125 330 C-138.02779521 332.58117513 -138.0762622 334.6686713 -138.15185547 337.92285156 C-138.74917121 341.48663998 -140.77247721 343.34848665 -143.25 345.875 C-143.74878662 346.38474365 -144.24757324 346.8944873 -144.76147461 347.41967773 C-146.31376812 348.97779143 -147.89721796 350.49399347 -149.5 352 C-150.87091797 353.28970703 -150.87091797 353.28970703 -152.26953125 354.60546875 C-168.20659213 368.62562441 -187.95207323 378.79677353 -208.5 384 C-209.63050781 384.2990625 -210.76101563 384.598125 -211.92578125 384.90625 C-240.08540902 391.11920158 -269.27550146 387.3309859 -295.73266602 376.69262695 C-297.3027002 376.07732277 -298.90023566 375.53325478 -300.5 375 C-307.43 381.93 -314.36 388.86 -321.5 396 C-317.92334768 399.57665232 -315.79934712 401.04870934 -311.375 403.125 C-305.69444444 405.80555556 -305.69444444 405.80555556 -303.5 408 C-303.18115234 410.43017578 -303.18115234 410.43017578 -303.0859375 413.4453125 C-303.04726563 414.52167969 -303.00859375 415.59804688 -302.96875 416.70703125 C-302.9378125 417.83496094 -302.906875 418.96289062 -302.875 420.125 C-302.83632813 421.26066406 -302.79765625 422.39632812 -302.7578125 423.56640625 C-302.66332399 426.37743956 -302.57776459 429.18846233 -302.5 432 C-299.10956594 433.0393868 -295.71199194 434.05317093 -292.3125 435.0625 C-291.35279297 435.35705078 -290.39308594 435.65160156 -289.40429688 435.95507812 C-288.47294922 436.22900391 -287.54160156 436.50292969 -286.58203125 436.78515625 C-285.72843018 437.04176025 -284.8748291 437.29836426 -283.99536133 437.56274414 C-281.10771845 438.0687385 -279.27459019 437.94593574 -276.5 437 C-275.02070668 435.47727416 -275.02070668 435.47727416 -274.04296875 433.47265625 C-273.65302734 432.76302734 -273.26308594 432.05339844 -272.86132812 431.32226562 C-272.47396484 430.57654297 -272.08660156 429.83082031 -271.6875 429.0625 C-271.28080078 428.32064453 -270.87410156 427.57878906 -270.45507812 426.81445312 C-268.26568421 423.10715836 -268.26568421 423.10715836 -267.5 419 C-264.66507161 418.05502387 -262.92090608 417.87352045 -259.984375 417.87060547 C-259.07333008 417.86745331 -258.16228516 417.86430115 -257.22363281 417.86105347 C-255.75168457 417.86408981 -255.75168457 417.86408981 -254.25 417.8671875 C-252.7355127 417.86575241 -252.7355127 417.86575241 -251.19042969 417.86428833 C-249.05533791 417.86360771 -246.92024406 417.86545379 -244.78515625 417.86962891 C-241.51297365 417.87497879 -238.24092832 417.86967991 -234.96875 417.86328125 C-232.89583303 417.86394205 -230.82291614 417.86522326 -228.75 417.8671875 C-227.76870117 417.86516327 -226.78740234 417.86313904 -225.77636719 417.86105347 C-224.4097998 417.86578171 -224.4097998 417.86578171 -223.015625 417.87060547 C-222.21415039 417.87140106 -221.41267578 417.87219666 -220.58691406 417.87301636 C-218.5 418 -218.5 418 -215.5 419 C-214.77280048 420.9787939 -214.11683127 422.98407251 -213.5 425 C-212.45730358 427.13529519 -211.35114969 429.24063592 -210.1875 431.3125 C-209.61386719 432.36050781 -209.04023438 433.40851563 -208.44921875 434.48828125 C-206.75789063 437.15775318 -206.75789063 437.15775318 -204.19580078 437.73291016 C-201.21451718 438.02828457 -199.2772766 437.64470278 -196.41796875 436.78515625 C-195.48662109 436.51123047 -194.55527344 436.23730469 -193.59570312 435.95507812 C-192.15614258 435.51325195 -192.15614258 435.51325195 -190.6875 435.0625 C-189.21893555 434.62647461 -189.21893555 434.62647461 -187.72070312 434.18164062 C-185.31058802 433.46448442 -182.90410265 432.73701258 -180.5 432 C-180.47812622 430.9330188 -180.47812622 430.9330188 -180.45581055 429.84448242 C-180.38138994 426.62493668 -180.28471 423.40643482 -180.1875 420.1875 C-180.15366211 418.50817383 -180.15366211 418.50817383 -180.11914062 416.79492188 C-180.08369141 415.72177734 -180.04824219 414.64863281 -180.01171875 413.54296875 C-179.98553467 412.55321045 -179.95935059 411.56345215 -179.93237305 410.54370117 C-179.43292617 407.60539683 -178.84701719 406.76987057 -176.5 405 C-174.1186435 403.75317127 -171.74277421 402.57955487 -169.3125 401.4375 C-161.81148247 397.81482986 -154.82610044 393.60725602 -147.828125 389.1015625 C-146.72984375 388.40804687 -145.6315625 387.71453125 -144.5 387 C-143.81421875 386.55398438 -143.1284375 386.10796875 -142.421875 385.6484375 C-139.44833709 384.64517065 -137.50545387 385.16886214 -134.5 386 C-131.62556028 387.58401429 -128.91798014 389.31269051 -126.1796875 391.1171875 C-122.14016639 393.95226765 -122.14016639 393.95226765 -117.5 395 C-113.77291456 392.45908915 -110.69133907 389.17672225 -107.5 386 C-106.74847656 385.28328125 -105.99695313 384.5665625 -105.22265625 383.828125 C-104.24619141 382.83039063 -104.24619141 382.83039063 -103.25 381.8125 C-102.66734375 381.22082031 -102.0846875 380.62914062 -101.484375 380.01953125 C-100.20738656 377.92347593 -100.20738656 377.92347593 -101.10546875 375.10546875 C-102.95354989 370.98999394 -105.38359071 367.48237186 -107.94140625 363.78125 C-109.66133557 360.71210294 -110.30753551 358.50660917 -110.5 355 C-109.75 352.83203125 -109.75 352.83203125 -108.5 350.8125 C-108.03078125 350.03519531 -107.5615625 349.25789062 -107.078125 348.45703125 C-106.03077378 346.82637798 -104.97872436 345.19873225 -103.921875 343.57421875 C-99.72525247 337.11259668 -96.03425679 330.51318478 -92.52050781 323.66210938 C-91.97475098 322.60540039 -91.97475098 322.60540039 -91.41796875 321.52734375 C-91.09594482 320.89562256 -90.7739209 320.26390137 -90.44213867 319.61303711 C-89.5 318 -89.5 318 -87.5 316 C-85.06982422 315.68115234 -85.06982422 315.68115234 -82.0546875 315.5859375 C-80.97832031 315.54726563 -79.90195312 315.50859375 -78.79296875 315.46875 C-77.66503906 315.4378125 -76.53710938 315.406875 -75.375 315.375 C-74.23933594 315.33632813 -73.10367188 315.29765625 -71.93359375 315.2578125 C-69.12256044 315.16332399 -66.31153767 315.07776459 -63.5 315 C-62.4606132 311.60956594 -61.44682907 308.21199194 -60.4375 304.8125 C-60.14294922 303.85279297 -59.84839844 302.89308594 -59.54492188 301.90429688 C-59.1340332 300.50727539 -59.1340332 300.50727539 -58.71484375 299.08203125 C-58.45823975 298.22843018 -58.20163574 297.3748291 -57.93725586 296.49536133 C-57.4312615 293.60771845 -57.55406426 291.77459019 -58.5 289 C-60.02272584 287.52070668 -60.02272584 287.52070668 -62.02734375 286.54296875 C-62.73697266 286.15302734 -63.44660156 285.76308594 -64.17773438 285.36132812 C-65.29631836 284.7802832 -65.29631836 284.7802832 -66.4375 284.1875 C-67.17935547 283.78080078 -67.92121094 283.37410156 -68.68554688 282.95507812 C-72.39284164 280.76568421 -72.39284164 280.76568421 -76.5 280 C-77.44497613 277.16507161 -77.62647955 275.42090608 -77.62939453 272.484375 C-77.63254669 271.57333008 -77.63569885 270.66228516 -77.63894653 269.72363281 C-77.63591019 268.25168457 -77.63591019 268.25168457 -77.6328125 266.75 C-77.63376923 265.7403418 -77.63472595 264.73068359 -77.63571167 263.69042969 C-77.63639229 261.55533791 -77.63454621 259.42024406 -77.63037109 257.28515625 C-77.62502121 254.01297365 -77.63032009 250.74092832 -77.63671875 247.46875 C-77.63605795 245.39583303 -77.63477674 243.32291614 -77.6328125 241.25 C-77.63483673 240.26870117 -77.63686096 239.28740234 -77.63894653 238.27636719 C-77.63421829 236.9097998 -77.63421829 236.9097998 -77.62939453 235.515625 C-77.62859894 234.71415039 -77.62780334 233.91267578 -77.62698364 233.08691406 C-77.5 231 -77.5 231 -76.5 228 C-74.5212061 227.27280048 -72.51592749 226.61683127 -70.5 226 C-68.36470481 224.95730358 -66.25936408 223.85114969 -64.1875 222.6875 C-63.13949219 222.11386719 -62.09148437 221.54023438 -61.01171875 220.94921875 C-58.34224682 219.25789063 -58.34224682 219.25789063 -57.76708984 216.69580078 C-57.47171543 213.71451718 -57.85529722 211.7772766 -58.71484375 208.91796875 C-58.98876953 207.98662109 -59.26269531 207.05527344 -59.54492188 206.09570312 C-59.98674805 204.65614258 -59.98674805 204.65614258 -60.4375 203.1875 C-60.72818359 202.20845703 -61.01886719 201.22941406 -61.31835938 200.22070312 C-62.03551558 197.81058802 -62.76298742 195.40410265 -63.5 193 C-74.32258161 193 -91.6653831 210.80696107 -99.1953125 217.85546875 Z M-384.5 360 C-385.70915637 361.4800169 -385.70915637 361.4800169 -386.86328125 363.453125 C-387.56469238 364.58355225 -387.56469238 364.58355225 -388.28027344 365.73681641 C-388.7859082 366.56616699 -389.29154297 367.39551758 -389.8125 368.25 C-390.90630923 370.01379219 -392.00140127 371.77678938 -393.09765625 373.5390625 C-393.66242676 374.44946289 -394.22719727 375.35986328 -394.80908203 376.29785156 C-397.40242336 380.44210537 -400.07379178 384.53395722 -402.75 388.625 C-407.91308006 396.53823151 -413.03045011 404.48005283 -418.125 412.4375 C-418.81239258 413.51016113 -419.49978516 414.58282227 -420.20800781 415.68798828 C-420.85350586 416.69716309 -421.49900391 417.70633789 -422.1640625 418.74609375 C-422.73592285 419.63997803 -423.3077832 420.5338623 -423.89697266 421.45483398 C-425.46707385 423.94772234 -426.98422616 426.47371027 -428.5 429 C-424.54 432.96 -420.58 436.92 -416.5 441 C-415.015 440.05125 -413.53 439.1025 -412 438.125 C-407.96912442 435.55802297 -403.92499572 433.01452632 -399.86743164 430.48999023 C-391.40983187 425.22640131 -383.03227868 419.84736409 -374.68066406 414.41748047 C-370.93534723 411.98294066 -367.18662094 409.55367583 -363.4375 407.125 C-362.75953369 406.68486572 -362.08156738 406.24473145 -361.38305664 405.79125977 C-356.78532276 402.81205515 -352.15399088 399.89049525 -347.5 397 C-348.85781214 393.9691582 -350.38418564 391.86349327 -352.72460938 389.51660156 C-353.37868774 388.85621887 -354.03276611 388.19583618 -354.70666504 387.51544189 C-355.41190308 386.81425232 -356.11714111 386.11306274 -356.84375 385.390625 C-357.93109436 384.30041046 -357.93109436 384.30041046 -359.04040527 383.18817139 C-360.57119011 381.65602721 -362.10449697 380.12639925 -363.64013672 378.59912109 C-365.9981077 376.25188369 -368.34519546 373.89414222 -370.69140625 371.53515625 C-372.17904636 370.04883718 -373.66730644 368.56313831 -375.15625 367.078125 C-375.86148804 366.3688385 -376.56672607 365.659552 -377.29333496 364.92877197 C-377.94741333 364.28099792 -378.6014917 363.63322388 -379.27539062 362.96582031 C-379.85115845 362.39164368 -380.42692627 361.81746704 -381.0201416 361.22589111 C-382.43642026 359.7873559 -382.43642026 359.7873559 -384.5 360 Z M-441.19580078 443.46875 C-441.85563965 444.1390625 -442.51547852 444.809375 -443.1953125 445.5 C-444.26845703 446.5828125 -444.26845703 446.5828125 -445.36328125 447.6875 C-446.48283203 448.8321875 -446.48283203 448.8321875 -447.625 450 C-448.37910156 450.763125 -449.13320313 451.52625 -449.91015625 452.3125 C-451.77796966 454.20395662 -453.64097267 456.09991362 -455.5 458 C-454.58877273 459.10865985 -453.67073341 460.21172219 -452.75 461.3125 C-452.23953125 461.92738281 -451.7290625 462.54226563 -451.203125 463.17578125 C-449.26406559 465.35955816 -449.26406559 465.35955816 -445.5 468 C-440.22 462.72 -434.94 457.44 -429.5 452 C-431.11792681 448.76414639 -432.05804109 447.16753932 -434.5 444.75 C-435.015625 444.22921875 -435.53125 443.7084375 -436.0625 443.171875 C-438.26987628 441.37238347 -439.08089886 441.63701231 -441.19580078 443.46875 Z " fill="#0099ff" transform="translate(497.5,2)"/>
<path d="M0 0 C3.83653199 4.02501454 6.61220845 8.41304511 9.3125 13.25 C9.85100586 14.18585938 9.85100586 14.18585938 10.40039062 15.140625 C13 19.73574405 13 19.73574405 13 22 C13.94875 22.0825 14.8975 22.165 15.875 22.25 C19 23 19 23 20.375 24.6875 C21.18174138 27.67244309 21.38510682 29.91914546 21 33 C18.76793569 35.84780619 17.45007001 36.84997666 14 38 C5.90088965 38.38567192 5.90088965 38.38567192 2 36 C0.62792969 34.12060547 0.62792969 34.12060547 -0.578125 31.8671875 C-1.01640625 31.06152344 -1.4546875 30.25585938 -1.90625 29.42578125 C-2.3496875 28.58402344 -2.793125 27.74226563 -3.25 26.875 C-3.70890625 26.02550781 -4.1678125 25.17601563 -4.640625 24.30078125 C-5.77055881 22.20569564 -6.8897933 20.1055863 -8 18 C-13.33428303 18.55871763 -18.16153107 19.49187669 -23.3125 21.0625 C-29.69039146 23 -29.69039146 23 -33 23 C-32.9685791 23.70084717 -32.9371582 24.40169434 -32.90478516 25.1237793 C-32.77976148 28.31135542 -32.70193368 31.49841586 -32.625 34.6875 C-32.57472656 35.79029297 -32.52445313 36.89308594 -32.47265625 38.02929688 C-32.32458753 46.19775435 -32.32458753 46.19775435 -35.55859375 50.0390625 C-39.13677716 52.07793659 -42.69709392 53.96934599 -46.4375 55.6875 C-53.04117988 58.82744725 -59.03299751 62.468213 -64.95092773 66.76245117 C-68.62234422 69.35890569 -71.45911409 70.92695626 -76 71 C-78.78125 69.92578125 -78.78125 69.92578125 -81.5 68.3125 C-82.45003906 67.76078125 -83.40007812 67.2090625 -84.37890625 66.640625 C-86.45716253 65.33977904 -88.45216141 63.99719761 -90.4375 62.5625 C-92.77789288 60.77766739 -92.77789288 60.77766739 -94.921875 61.2109375 C-99.00435194 62.76105092 -101.89576112 66.01625838 -105 69 C-105.70769531 69.6703125 -106.41539063 70.340625 -107.14453125 71.03125 C-107.79808594 71.7015625 -108.45164062 72.371875 -109.125 73.0625 C-109.72570312 73.67222656 -110.32640625 74.28195313 -110.9453125 74.91015625 C-112.30120299 77.05877439 -112.30120299 77.05877439 -111.40234375 79.90234375 C-109.54332087 84.00876477 -107.11450315 87.52038629 -104.55859375 91.21875 C-102.83866443 94.28789706 -102.19246449 96.49339083 -102 100 C-102.75 102.16796875 -102.75 102.16796875 -104 104.1875 C-104.46921875 104.96480469 -104.9384375 105.74210937 -105.421875 106.54296875 C-106.46922622 108.17362202 -107.52127564 109.80126775 -108.578125 111.42578125 C-112.75453646 117.85628394 -116.42441248 124.41646396 -119.89160156 131.25 C-120.2522168 131.95125 -120.61283203 132.6525 -120.984375 133.375 C-121.30116211 134.00148437 -121.61794922 134.62796875 -121.94433594 135.2734375 C-123.160234 137.26206634 -124.12591581 138.5929077 -126 140 C-128.54370117 140.34057617 -128.54370117 140.34057617 -131.54296875 140.29296875 C-132.61611328 140.28330078 -133.68925781 140.27363281 -134.79492188 140.26367188 C-135.91447266 140.23853516 -137.03402344 140.21339844 -138.1875 140.1875 C-139.31865234 140.17396484 -140.44980469 140.16042969 -141.61523438 140.14648438 C-144.41063317 140.11109958 -147.20507892 140.06172948 -150 140 C-150.12479736 140.57717773 -150.24959473 141.15435547 -150.37817383 141.74902344 C-151.58953215 147.28633422 -152.98781006 152.74305405 -154.51171875 158.203125 C-155.22635043 162.21270534 -155.22635043 162.21270534 -154 166 C-151.36061413 167.89738827 -148.49673156 169.24250259 -145.5625 170.625 C-143.99793788 171.38109859 -142.43657383 172.14386029 -140.87890625 172.9140625 C-140.1835376 173.2435791 -139.48816895 173.5730957 -138.77172852 173.91259766 C-137 175 -137 175 -135 178 C-134.73257446 180.08018494 -134.73257446 180.08018494 -134.70947266 182.49975586 C-134.69671295 183.40757309 -134.68395325 184.31539032 -134.67080688 185.25071716 C-134.66858124 186.22887894 -134.66635559 187.20704071 -134.6640625 188.21484375 C-134.6574057 189.22213028 -134.6507489 190.22941681 -134.64389038 191.26722717 C-134.63376275 193.39810356 -134.62907339 195.52901168 -134.62939453 197.65991211 C-134.62502133 200.921592 -134.58870211 204.18191897 -134.55078125 207.44335938 C-134.54491318 209.5130162 -134.54094372 211.58267946 -134.5390625 213.65234375 C-134.52469147 214.62848129 -134.51032043 215.60461884 -134.49551392 216.6103363 C-134.54108977 223.35768881 -134.54108977 223.35768881 -136.78564453 226.49926758 C-138.79868009 227.86355971 -140.75846077 229.19012365 -142.890625 230.359375 C-143.59960938 230.75253906 -144.30859375 231.14570313 -145.0390625 231.55078125 C-145.76867187 231.94652344 -146.49828125 232.34226562 -147.25 232.75 C-147.99507812 233.16121094 -148.74015625 233.57242188 -149.5078125 233.99609375 C-151.33519231 235.00349544 -153.16714863 236.00258786 -155 237 C-154.44128237 242.33428303 -153.50812331 247.16153107 -151.9375 252.3125 C-150 258.69039146 -150 258.69039146 -150 262 C-149.07719238 261.9685791 -149.07719238 261.9685791 -148.13574219 261.93652344 C-145.34066191 261.85322983 -142.54584285 261.80129987 -139.75 261.75 C-138.78191406 261.71648437 -137.81382812 261.68296875 -136.81640625 261.6484375 C-129.67558386 261.5499434 -129.67558386 261.5499434 -126.35546875 263.76171875 C-124.10792356 267.473083 -124.52267269 269.70405421 -125 274 C-126.81163267 276.67431489 -127.87761077 276.95920359 -131 278 C-135.45371366 278.28773324 -139.91304356 278.27771344 -144.375 278.3125 C-145.60734375 278.34150391 -146.8396875 278.37050781 -148.109375 278.40039062 C-149.89214844 278.41295898 -149.89214844 278.41295898 -151.7109375 278.42578125 C-153.33974854 278.44765503 -153.33974854 278.44765503 -155.00146484 278.4699707 C-158.74405076 277.88338237 -160.34683791 276.66458929 -163 274 C-164.05493164 272.0715332 -164.05493164 272.0715332 -164.66015625 270.05078125 C-164.89460449 269.2932959 -165.12905273 268.53581055 -165.37060547 267.75537109 C-165.59893066 266.94922363 -165.82725586 266.14307617 -166.0625 265.3125 C-166.3114502 264.47541504 -166.56040039 263.63833008 -166.81689453 262.77587891 C-167.57212943 260.19074539 -168.2933058 257.59879497 -169 255 C-169.2160791 254.20609863 -169.4321582 253.41219727 -169.65478516 252.59423828 C-174.13047505 235.78285028 -174.13047505 235.78285028 -173 229 C-168.94416407 225.12237504 -164.52084329 222.38072486 -159.625 219.6875 C-158.98433594 219.32849609 -158.34367187 218.96949219 -157.68359375 218.59960938 C-156.1254837 217.72753286 -154.56317778 216.86295979 -153 216 C-150.57569497 199.26350812 -150.57569497 199.26350812 -154.62011719 183.64599609 C-158.59123557 180.25388146 -163.1308328 178.29673286 -168.09887695 176.7824707 C-170.36078393 175.85150732 -171.51167296 174.94005387 -173 173 C-173.66632504 165.67766723 -172.11884843 159.24005217 -170.25 152.1875 C-169.97486572 151.12885742 -169.69973145 150.07021484 -169.41625977 148.97949219 C-168.6275257 145.98151794 -167.81896725 142.98983848 -167 140 C-166.80325684 139.27055176 -166.60651367 138.54110352 -166.40380859 137.78955078 C-164.06386018 129.28486576 -164.06386018 129.28486576 -161.08203125 125.68359375 C-157.07969493 123.49727315 -154.30766788 123.90166179 -149.83740234 124.15795898 C-140.95220241 124.83931303 -140.95220241 124.83931303 -133.12988281 121.43066406 C-130.16034054 117.40862579 -128.49462143 112.93567916 -126.88574219 108.23779297 C-125.4174963 104.52832719 -123.23385912 101.28926527 -121 98 C-121.30292969 97.52691406 -121.60585937 97.05382812 -121.91796875 96.56640625 C-123.29747766 94.3889045 -124.64862878 92.19506515 -126 90 C-126.47695312 89.25621094 -126.95390625 88.51242188 -127.4453125 87.74609375 C-130.61416822 82.54011649 -131.88103342 79.10385023 -131 73 C-129.48828125 70.26953125 -129.48828125 70.26953125 -127.3125 67.8125 C-126.49394531 66.88566406 -125.67539063 65.95882812 -124.83203125 65.00390625 C-123.89226798 63.99861698 -122.94802411 62.99750279 -122 62 C-121.48614746 61.45585449 -120.97229492 60.91170898 -120.44287109 60.35107422 C-103.37449783 42.43829275 -103.37449783 42.43829275 -96.30078125 41.51953125 C-91.07207896 41.70247201 -87.30343343 44.24043264 -83 47 C-82.22527344 47.47695312 -81.45054687 47.95390625 -80.65234375 48.4453125 C-78.75781339 49.61477569 -76.87491762 50.79943967 -75 52 C-74.28457031 51.57589844 -73.56914062 51.15179688 -72.83203125 50.71484375 C-71.33736328 49.83505859 -71.33736328 49.83505859 -69.8125 48.9375 C-68.7296875 48.27621094 -67.646875 47.61492187 -66.53125 46.93359375 C-64.08897343 45.50916058 -62.09293841 44.69861522 -59.34375 43.78515625 C-55.24273785 42.29264187 -52.93052989 41.27529811 -50 38 C-48.59383684 32.16131597 -48.93691347 26.22962279 -49.15234375 20.2734375 C-49.18713185 16.76770428 -49.09365778 15.19461684 -47.546875 11.98046875 C-44.0363928 9.25069195 -40.55804028 8.13996464 -36.3125 6.9375 C-35.47541504 6.6885498 -34.63833008 6.43959961 -33.77587891 6.18310547 C-31.19074539 5.42787057 -28.59879497 4.7066942 -26 4 C-25.20609863 3.7839209 -24.41219727 3.5678418 -23.59423828 3.34521484 C-6.78285028 -1.13047505 -6.78285028 -1.13047505 0 0 Z " fill="#0099ff" transform="translate(228,55)"/>
</svg>
