<?xml version="1.0" standalone="no"?>
<!DOCTYPE svg PUBLIC "-//W3C//DTD SVG 20010904//EN"
 "http://www.w3.org/TR/2001/REC-SVG-20010904/DTD/svg10.dtd">
<svg version="1.0" xmlns="http://www.w3.org/2000/svg"
 width="360.000000pt" height="360.000000pt" viewBox="0 0 360.000000 360.000000"
 preserveAspectRatio="xMidYMid meet">

<g transform="translate(0.000000,360.000000) scale(0.100000,-0.100000)"
fill="#0099ff" stroke="none">
<path d="M1685 2640 c-208 -33 -419 -150 -545 -303 -48 -60 -123 -183 -135
-224 -6 -23 -5 -23 79 -23 l85 0 38 73 c54 105 200 248 308 304 122 63 202 84
336 90 89 4 135 2 195 -12 199 -44 374 -160 479 -318 21 -31 40 -55 42 -53 10
10 -94 155 -156 217 -111 111 -249 190 -401 230 -88 23 -241 32 -325 19z"/>
<path d="M1754 2499 c-71 -12 -172 -50 -241 -90 -72 -42 -220 -189 -252 -249
-28 -52 -21 -47 38 33 112 148 318 247 516 247 214 0 425 -113 546 -292 l40
-58 69 0 c39 0 70 3 70 6 0 21 -73 127 -127 185 -168 178 -413 259 -659 218z"/>
<path d="M884 2006 c-78 -36 -104 -107 -64 -174 36 -59 82 -72 261 -72 163 0
199 -9 186 -44 -5 -14 -27 -16 -154 -17 -186 -1 -220 -3 -225 -9 -2 -3 -21
-26 -41 -51 -20 -25 -37 -49 -37 -53 0 -3 105 -6 233 -6 204 0 237 3 273 19
103 47 122 157 39 230 -45 39 -107 51 -265 51 -109 0 -130 2 -130 15 0 13 25
15 169 15 l169 0 39 48 c22 26 43 53 47 60 6 9 -41 12 -221 12 -219 0 -230 -1
-279 -24z"/>
<path d="M1535 2017 c-99 -39 -131 -109 -85 -185 36 -59 83 -72 258 -72 86 0
162 -5 173 -10 21 -12 25 -35 9 -45 -6 -4 -88 -6 -183 -5 -127 0 -177 -3 -188
-12 -19 -15 -79 -93 -79 -102 0 -3 104 -6 230 -6 245 0 277 5 327 52 55 52 50
142 -11 196 -46 40 -108 52 -266 52 -109 0 -130 2 -130 15 0 13 25 15 169 15
l170 0 37 48 c21 26 42 53 47 60 13 17 -434 16 -478 -1z"/>
<path d="M2056 2018 c30 -51 300 -412 321 -428 31 -24 51 -25 82 -4 23 17 331
422 331 436 0 4 -37 8 -83 8 l-83 0 -98 -135 c-54 -75 -102 -135 -106 -133 -5
2 -51 62 -102 133 l-94 130 -88 3 c-69 2 -86 0 -80 -10z"/>
<path d="M1005 1488 c12 -42 87 -166 136 -226 103 -125 285 -239 454 -283 117
-31 300 -31 415 0 223 59 442 225 533 403 15 29 20 42 10 28 -75 -103 -110
-144 -151 -178 -173 -143 -337 -199 -551 -189 -134 6 -214 27 -336 90 -108 56
-254 199 -308 305 l-38 72 -85 0 c-84 0 -85 0 -79 -22z"/>
<path d="M2361 1452 c-121 -179 -332 -292 -546 -292 -197 0 -405 99 -515 247
-60 80 -67 85 -39 33 34 -64 182 -208 259 -253 290 -168 667 -111 896 135 52
56 124 161 124 182 0 3 -31 6 -70 6 l-69 0 -40 -58z"/>
</g>
</svg>
